<svg xmlns="http://www.w3.org/2000/svg" viewBox="0 0 1200 675" role="img" aria-labelledby="title desc">
  <title id="title">AI collaboration illustration</title>
  <desc id="desc">An abstract composition of human and machine collaboration.</desc>
  <defs>
    <linearGradient id="bg" x1="0" y1="0" x2="1" y2="1">
      <stop offset="0%" stop-color="#f8fafc" />
      <stop offset="100%" stop-color="#e2e8f0" />
    </linearGradient>
    <linearGradient id="glow" x1="0" y1="0" x2="1" y2="1">
      <stop offset="0%" stop-color="#0ea5e9" />
      <stop offset="100%" stop-color="#fb923c" />
    </linearGradient>
  </defs>
  <rect width="1200" height="675" rx="40" fill="url(#bg)" />
  <circle cx="315" cy="210" r="132" fill="#0ea5e9" opacity="0.16" />
  <circle cx="910" cy="240" r="156" fill="#fb923c" opacity="0.16" />
  <path
    d="M258 500c66-126 182-176 300-176 120 0 242 54 388 174"
    fill="none"
    stroke="url(#glow)"
    stroke-linecap="round"
    stroke-width="22"
  />
  <g fill="#0f172a" opacity="0.92">
    <circle cx="330" cy="310" r="66" />
    <path d="M240 520c18-88 84-146 150-146s132 58 150 146" />
  </g>
  <g fill="none" stroke="#0f172a" stroke-width="18">
    <rect x="690" y="206" width="214" height="214" rx="44" />
    <path d="M744 274h106M744 326h106M744 378h64" stroke-linecap="round" />
  </g>
</svg>
