<svg xmlns="http://www.w3.org/2000/svg" viewBox="0 0 1200 675" role="img" aria-labelledby="title desc">
  <title id="title">Engineering systems illustration</title>
  <desc id="desc">An abstract technical landscape with layered cards and connection lines.</desc>
  <defs>
    <linearGradient id="bg" x1="0" y1="0" x2="1" y2="1">
      <stop offset="0%" stop-color="#082f49" />
      <stop offset="50%" stop-color="#0f172a" />
      <stop offset="100%" stop-color="#7c2d12" />
    </linearGradient>
    <linearGradient id="card" x1="0" y1="0" x2="1" y2="1">
      <stop offset="0%" stop-color="#f8fafc" stop-opacity="0.98" />
      <stop offset="100%" stop-color="#e2e8f0" stop-opacity="0.84" />
    </linearGradient>
  </defs>
  <rect width="1200" height="675" rx="40" fill="url(#bg)" />
  <circle cx="210" cy="135" r="96" fill="#0ea5e9" opacity="0.22" />
  <circle cx="1020" cy="520" r="112" fill="#f97316" opacity="0.18" />
  <g fill="none" stroke="#38bdf8" stroke-linecap="round" stroke-width="6" opacity="0.78">
    <path d="M170 472h204" />
    <path d="M380 472c60 0 60-120 120-120h154" />
    <path d="M660 352c62 0 62 120 124 120h180" />
  </g>
  <g fill="url(#card)">
    <rect x="130" y="392" width="260" height="160" rx="28" />
    <rect x="470" y="260" width="260" height="160" rx="28" />
    <rect x="808" y="392" width="260" height="160" rx="28" />
  </g>
  <g fill="#0f172a">
    <rect x="176" y="434" width="160" height="18" rx="9" opacity="0.9" />
    <rect x="176" y="472" width="116" height="14" rx="7" opacity="0.56" />
    <rect x="516" y="302" width="158" height="18" rx="9" opacity="0.9" />
    <rect x="516" y="340" width="104" height="14" rx="7" opacity="0.56" />
    <rect x="854" y="434" width="162" height="18" rx="9" opacity="0.9" />
    <rect x="854" y="472" width="124" height="14" rx="7" opacity="0.56" />
  </g>
</svg>
